<svg width="18" height="18" viewBox="0 0 18 18" fill="none" xmlns="http://www.w3.org/2000/svg">
<g clip-path="url(#clip0_1306_1079)">
<path d="M4 9.5V5.5H2.5C2.10218 5.5 1.72064 5.65804 1.43934 5.93934C1.15804 6.22064 1 6.60218 1 7V16C1.00074 16.0929 1.02733 16.1837 1.07679 16.2623C1.12624 16.3409 1.19661 16.4041 1.28 16.445C1.36034 16.4815 1.44892 16.4962 1.53674 16.4874C1.62456 16.4786 1.70849 16.4467 1.78 16.395L4.355 14.5H11.075C11.2645 14.5056 11.4531 14.4722 11.6292 14.402C11.8053 14.3317 11.9651 14.226 12.0987 14.0915C12.2323 13.957 12.3368 13.7965 12.4059 13.6199C12.4749 13.4433 12.5069 13.2545 12.5 13.065V12.5H7C6.20435 12.5 5.44129 12.1839 4.87868 11.6213C4.31607 11.0587 4 10.2956 4 9.5Z" fill="white"/>
<path d="M15.5 2H7C6.60218 2 6.22064 2.15804 5.93934 2.43934C5.65804 2.72064 5.5 3.10218 5.5 3.5V9.5C5.5 9.89782 5.65804 10.2794 5.93934 10.5607C6.22064 10.842 6.60218 11 7 11H13.775L16.165 12.855C16.2361 12.9075 16.3197 12.9403 16.4076 12.95C16.4954 12.9596 16.5842 12.9458 16.665 12.91C16.7501 12.8695 16.822 12.8057 16.8724 12.7261C16.9228 12.6465 16.9497 12.5542 16.95 12.46V3.5C16.9502 3.11069 16.7991 2.73654 16.5285 2.45663C16.2579 2.17672 15.8891 2.01298 15.5 2Z" fill="white"/>
</g>
<defs>
<clipPath id="clip0_1306_1079">
<rect width="18" height="18" fill="white"/>
</clipPath>
</defs>
</svg>
