<svg width="96" height="74" viewBox="0 0 96 74" fill="#146EF5" xmlns="http://www.w3.org/2000/svg">
<path d="M4.48 18.464H14.464V60H4.48V18.464ZM33.0175 25.568H20.2175V18.464H55.7375V25.568H43.0015V60H33.0175V25.568ZM74.92 60.64C70.952 60.64 66.0453 60.256 60.2 59.488V51.872C67.4533 52.9813 72.4027 53.536 75.048 53.536C80.5947 53.536 83.368 52.1067 83.368 49.248V46.56C83.368 45.1947 82.9627 44.1493 82.152 43.424C81.384 42.6987 79.976 42.336 77.928 42.336H73.064C63.9333 42.336 59.368 38.7093 59.368 31.456V28.384C59.368 24.7573 60.8827 22.0907 63.912 20.384C66.9413 18.6773 71.7413 17.824 78.312 17.824C81.7253 17.824 86.056 18.1013 91.304 18.656V26.08C84.8613 25.312 80.424 24.928 77.992 24.928C74.6213 24.928 72.36 25.2053 71.208 25.76C69.9707 26.3573 69.352 27.296 69.352 28.576V31.52C69.352 33.696 71.1867 34.784 74.856 34.784H79.848C84.584 34.784 88.0187 35.6587 90.152 37.408C92.2853 39.1573 93.352 41.824 93.352 45.408V48.16C93.352 53.1093 91.5813 56.4587 88.04 58.208C86.3333 59.104 84.4347 59.7227 82.344 60.064C80.296 60.448 77.8213 60.64 74.92 60.64Z"/>
</svg>
