<svg width="32" height="32" viewBox="0 0 32 32" fill="none" xmlns="http://www.w3.org/2000/svg">
<path d="M16 0.5C24.5604 0.5 31.5 7.43959 31.5 16C31.5 24.5604 24.5604 31.5 16 31.5C7.43959 31.5 0.5 24.5604 0.5 16C0.5 7.43959 7.43959 0.5 16 0.5Z" stroke="#146EF5"/>
<path d="M10.8249 15.305C14.0462 13.8938 16.1941 12.9634 17.2689 12.5139C20.3375 11.2305 20.9751 11.0075 21.3907 11.0001C21.4822 10.9985 21.6865 11.0213 21.8189 11.1293C21.9307 11.2205 21.9615 11.3438 21.9762 11.4302C21.9909 11.5167 22.0092 11.7137 21.9947 11.8676C21.8284 13.6246 21.1088 17.8881 20.7428 19.8559C20.5879 20.6885 20.2829 20.9677 19.9876 20.995C19.346 21.0544 18.8587 20.5686 18.2372 20.159C17.2647 19.5179 16.7153 19.1189 15.7713 18.4934C14.6803 17.7704 15.3875 17.3731 16.0093 16.7238C16.172 16.5538 18.9992 13.968 19.0539 13.7334C19.0608 13.7041 19.0671 13.5947 19.0025 13.537C18.9379 13.4792 18.8426 13.499 18.7738 13.5147C18.6762 13.5369 17.1226 14.5695 14.1129 16.6124C13.6719 16.9169 13.2725 17.0652 12.9146 17.0575C12.5201 17.0489 11.7612 16.8332 11.197 16.6488C10.505 16.4226 9.95502 16.303 10.0029 15.9188C10.0279 15.7188 10.3019 15.5141 10.8249 15.305Z" fill="#146EF5"/>
</svg>
