<svg width="24" height="24" viewBox="0 0 24 24" fill="none" xmlns="http://www.w3.org/2000/svg">
<path d="M21.0891 6.97953C20.2391 6.03953 18.8191 5.56953 16.7591 5.56953H16.5191V5.52953C16.5191 3.84953 16.5191 1.76953 12.7591 1.76953H11.2391C7.47906 1.76953 7.47906 3.85953 7.47906 5.52953V5.57953H7.23906C5.16906 5.57953 3.75906 6.04953 2.90906 6.98953C1.91906 8.08953 1.94906 9.56953 2.04906 10.5795L2.05906 10.6495L2.13652 11.4628C2.15078 11.6126 2.23144 11.7479 2.35734 11.8303C2.59714 11.9872 2.99849 12.2459 3.23906 12.3795C3.37906 12.4695 3.52906 12.5495 3.67906 12.6295C5.38906 13.5695 7.26906 14.1995 9.17906 14.5095C9.26906 15.4495 9.67906 16.5495 11.8691 16.5495C14.0591 16.5495 14.4891 15.4595 14.5591 14.4895C16.5991 14.1595 18.5691 13.4495 20.3491 12.4095C20.4091 12.3795 20.4491 12.3495 20.4991 12.3195C20.8958 12.0953 21.3074 11.819 21.6825 11.5484C21.7955 11.4668 21.8678 11.3408 21.8832 11.2023L21.8991 11.0595L21.9491 10.5895C21.9591 10.5295 21.9591 10.4795 21.9691 10.4095C22.0491 9.39953 22.0291 8.01953 21.0891 6.97953ZM13.0891 13.8295C13.0891 14.8895 13.0891 15.0495 11.8591 15.0495C10.6291 15.0495 10.6291 14.8595 10.6291 13.8395V12.5795H13.0891V13.8295ZM8.90906 5.56953V5.52953C8.90906 3.82953 8.90906 3.19953 11.2391 3.19953H12.7591C15.0891 3.19953 15.0891 3.83953 15.0891 5.52953V5.57953H8.90906V5.56953Z" fill="#146EF5"/>
<path d="M20.8733 13.7339C21.2269 13.5656 21.6342 13.8459 21.5988 14.2359L21.2398 18.1897C21.0298 20.1897 20.2098 22.2297 15.8098 22.2297H8.18984C3.78984 22.2297 2.96984 20.1897 2.75984 18.1997L2.41913 14.4519C2.38409 14.0664 2.78205 13.7865 3.13468 13.946C4.2741 14.4615 6.37724 15.3761 7.67641 15.7164C7.84072 15.7594 7.97361 15.877 8.04556 16.0309C8.65253 17.329 9.96896 18.0197 11.8698 18.0197C13.752 18.0197 15.085 17.3024 15.694 16.0011C15.766 15.8471 15.8991 15.7296 16.0635 15.6863C17.443 15.3233 19.6816 14.301 20.8733 13.7339Z" fill="#146EF5"/>
</svg>
