<svg width="25" height="24" viewBox="0 0 25 24" fill="none" xmlns="http://www.w3.org/2000/svg">
<path d="M12.5 7.75C10.61 7.75 10.25 8.54 10.25 10V10.62H14.75V10C14.75 8.54 14.39 7.75 12.5 7.75Z" fill="#146EF5"/>
<path d="M12.5004 15.1004C13.1079 15.1004 13.6004 14.6079 13.6004 14.0004C13.6004 13.3929 13.1079 12.9004 12.5004 12.9004C11.8929 12.9004 11.4004 13.3929 11.4004 14.0004C11.4004 14.6079 11.8929 15.1004 12.5004 15.1004Z" fill="#146EF5"/>
<path d="M12.5 2C6.98 2 2.5 6.48 2.5 12C2.5 17.52 6.98 22 12.5 22C18.02 22 22.5 17.52 22.5 12C22.5 6.48 18.02 2 12.5 2ZM17.88 14.5C17.88 16.7 17.2 17.38 15 17.38H10C7.8 17.38 7.12 16.7 7.12 14.5V13.5C7.12 11.79 7.53 11 8.75 10.73V10C8.75 9.07 8.75 6.25 12.5 6.25C16.25 6.25 16.25 9.07 16.25 10V10.73C17.47 11 17.88 11.79 17.88 13.5V14.5Z" fill="#146EF5"/>
</svg>
