<svg width="24" height="25" viewBox="0 0 24 25" fill="none" xmlns="http://www.w3.org/2000/svg">
<path d="M3 12.5C3 16.2712 3 20.1569 4.31802 21.3284C5.63604 22.5 7.75736 22.5 12 22.5C16.2426 22.5 18.364 22.5 19.682 21.3284C21 20.1569 21 16.2712 21 12.5" stroke="white" stroke-width="1.5"/>
<path d="M14.6603 14.7019L20.6676 12.8997C21.2631 12.7211 21.5609 12.6317 21.7498 12.4176C21.7866 12.3759 21.8199 12.3312 21.8492 12.284C22 12.0415 22 11.7307 22 11.1089C22 8.65877 22 7.4337 21.327 6.60659C21.1977 6.44763 21.0524 6.30233 20.8934 6.17298C20.0663 5.5 18.8412 5.5 16.3911 5.5H7.60893C5.15877 5.5 3.9337 5.5 3.10659 6.17298C2.94763 6.30233 2.80233 6.44763 2.67298 6.60659C2 7.4337 2 8.65877 2 11.1089C2 11.7307 2 12.0415 2.15078 12.284C2.18015 12.3312 2.21341 12.3759 2.25021 12.4176C2.43915 12.6317 2.7369 12.7211 3.3324 12.8997L9.33968 14.7019" stroke="white" stroke-width="1.5"/>
<path d="M6.5 5.5C7.32344 5.47913 8.15925 4.95491 8.43944 4.18032C8.44806 4.15649 8.4569 4.12999 8.47457 4.07697L8.50023 4C8.54241 3.87344 8.56351 3.81014 8.58608 3.754C8.87427 3.03712 9.54961 2.55037 10.3208 2.50366C10.3812 2.5 10.4479 2.5 10.5814 2.5H13.4191C13.5525 2.5 13.6192 2.5 13.6796 2.50366C14.4508 2.55037 15.1262 3.03712 15.4144 3.754C15.4369 3.81014 15.458 3.87343 15.5002 4L15.5259 4.07697C15.5435 4.12968 15.5524 4.15656 15.561 4.18032C15.8412 4.95491 16.6766 5.47913 17.5 5.5" stroke="white" stroke-width="1.5"/>
<path d="M14 13H10C9.72386 13 9.5 13.2239 9.5 13.5V15.6615C9.5 15.8659 9.62448 16.0498 9.8143 16.1257L10.5144 16.4058C11.4681 16.7872 12.5319 16.7872 13.4856 16.4058L14.1857 16.1257C14.3755 16.0498 14.5 15.8659 14.5 15.6615V13.5C14.5 13.2239 14.2761 13 14 13Z" stroke="white" stroke-width="1.5" stroke-linecap="round"/>
</svg>
