<svg width="25" height="25" viewBox="0 0 25 25" fill="none" xmlns="http://www.w3.org/2000/svg">
<path d="M9.65316 5.90838C10.9198 3.63613 11.5531 2.5 12.5 2.5C13.4469 2.5 14.0802 3.63612 15.3468 5.90837L15.6745 6.49623C16.0345 7.14193 16.2144 7.46479 16.4951 7.67781C16.7757 7.89083 17.1251 7.9699 17.8241 8.12805L18.4605 8.27203C20.9201 8.82856 22.15 9.10682 22.4426 10.0477C22.7352 10.9886 21.8968 11.9691 20.2199 13.9299L19.7861 14.4372C19.3096 14.9944 19.0713 15.273 18.9641 15.6177C18.857 15.9624 18.893 16.3341 18.965 17.0776L19.0306 17.7544C19.2841 20.3706 19.4109 21.6787 18.6449 22.2602C17.8788 22.8417 16.7273 22.3115 14.4243 21.2512L13.8285 20.9768C13.1741 20.6755 12.8469 20.5248 12.5 20.5248C12.1531 20.5248 11.8259 20.6755 11.1715 20.9768L10.5757 21.2512C8.27268 22.3115 7.12118 22.8417 6.35515 22.2602C5.58912 21.6787 5.71588 20.3706 5.9694 17.7544L6.03498 17.0776C6.10703 16.3341 6.14305 15.9624 6.03586 15.6177C5.92868 15.273 5.69043 14.9944 5.21392 14.4372L4.7801 13.9299C3.10325 11.9691 2.26482 10.9886 2.55742 10.0477C2.85002 9.10682 4.07986 8.82856 6.53954 8.27203L7.17589 8.12805C7.87485 7.9699 8.22433 7.89083 8.50494 7.67781C8.78555 7.46479 8.96553 7.14194 9.32547 6.49623L9.65316 5.90838Z" stroke="white" stroke-width="1.5"/>
</svg>
