<svg width="391" height="277" viewBox="0 0 391 277" fill="none" xmlns="http://www.w3.org/2000/svg">
<path d="M0.939453 129.852C16.1346 123.9 50.7544 141.225 67.6726 258.149C68.4559 263.789 71.0392 274.598 75.1919 274.598C89.7604 274.598 81.7712 5.31509 109.498 2.49538C137.226 -0.324336 127.357 132.628 147.094 151.47C159.832 163.63 172.942 143.907 172.472 135.918" stroke="#146EF5" stroke-width="2.81971"/>
<rect x="171.062" y="123.699" width="28.1971" height="21.6178" fill="#146EF5"/>
<rect x="184.221" y="118.061" width="1.87981" height="33.8365" fill="#146EF5"/>
<rect x="266.932" y="62.6055" width="28.1971" height="21.6178" fill="#146EF5"/>
<rect x="280.092" y="56.9668" width="1.87981" height="33.8365" fill="#146EF5"/>
<rect x="203.02" y="138.738" width="28.1971" height="16.9183" fill="#146EF5"/>
<rect x="216.178" y="134.039" width="1.87981" height="26.3173" fill="#146EF5"/>
<rect x="298.891" y="73.8848" width="28.1971" height="16.9183" fill="#146EF5"/>
<rect x="312.047" y="69.1855" width="1.87981" height="26.3173" fill="#146EF5"/>
<rect x="362.803" y="66.3652" width="28.1971" height="46.0553" fill="#146EF5"/>
<rect x="375.963" y="61.666" width="1.87981" height="54.5144" fill="#146EF5"/>
<rect x="330.846" y="57.9062" width="28.1971" height="20.6779" fill="#146EF5"/>
<rect x="344.006" y="53.207" width="1.87981" height="30.0769" fill="#146EF5"/>
<rect x="234.975" y="63.5449" width="28.1971" height="73.3125" fill="#146EF5"/>
<rect x="250.016" y="54.1465" width="1.87981" height="30.0769" fill="#146EF5"/>
</svg>
